@startuml Basic Class
skinparam class {
    BackgroundColor White
    ArrowColor Black
    BorderColor Black
    AttributeIconSize 0
}
'skinparam style strictuml
skinparam stereotypeCBackgroundColor White
skinparam stereotypeIBackgroundColor White
skinparam stereotypeEBackgroundColor White
skinparam stereotypeABackgroundColor White
skinparam linetype ortho


package main {

}

package service {
    interface Service {
        +Init()
        +Start()
        +OnTerminate()
    }
    class BaseService {
        +service: Service
        +conf: *AppConfig
        +NewBaseService()
        +Run()
        +Stop()
    }

    class ProfileService {
        +Insert()
        +Retreive()
        +LiveCheck()
    }
}

package config {
    class AppConfig {
        +GracefulTermTimeMillis: int64
        +GetInstance()
        +Load()
    }

    class RedisConfig{
        +Host: string
    	+ReaderHost: string
	    +Port: string
	    +PoolMaxIdle: int
	    +PoolMaxActive: int
	    +PoolIdleTimeout: int
	    +TTL: int
	    +Password: string
	    +ConnTimeout: int
    }

    class DynamoConfig {
        +Endpoint: string
        +Region: string
        +ReadCapacity: int64
        +WriteCapacity: int64
    }

}

package data {
    class UserProfile {
        +UID:   string
	    +Name:  string
	    +Email: string
	    +Age:   int
    }
}

package dynamo {    
    class DynamoDB {
        +db: *DynamoDB
        +tableName:string
	    +NewDatabase()
        +Write()
        +Read()
    }
}

package rediscache {    
    class RedisCache {
        +pool *redis.Pool
	    +ttl int
        +newPool()
        +GetCache()
        +SetCache()
        +NewRedisCache()
        +Close()
        +Del()
    }
}

Service <|. BaseService
BaseService <|. ProfileService
main ..> service
ProfileService ..> AppConfig
RedisCache --* ProfileService 
RedisCache ..> UserProfile 
AppConfig .> RedisConfig
AppConfig .> DynamoConfig
DynamoDB ..> DynamoConfig
DynamoDB ..> UserProfile
DynamoDB -* ProfileService
RedisCache ...> RedisConfig


@enduml
